<svg width="84" height="32" viewBox="0 0 84 32" fill="none" xmlns="http://www.w3.org/2000/svg">
<path d="M10.6069 20.1401H9.28104C9.02442 20.1401 8.85334 20.3557 8.85334 20.5713C8.85334 20.8301 9.06719 21.0026 9.28104 21.0026H10.222H10.9063C11.1629 21.0026 11.334 20.787 11.334 20.5713C11.334 20.3126 11.1201 20.1401 10.9063 20.1401H10.6069ZM8.38287 18.3719C8.3401 18.3719 8.3401 18.3719 8.29733 18.3719C8.08348 18.415 7.95517 18.5875 7.95517 18.8031C7.95517 18.9756 8.08348 19.1482 8.21179 19.1913C8.25456 19.2344 8.3401 19.2344 8.38287 19.2344H11.4623C11.7189 19.2344 11.89 19.0188 11.89 18.8031C11.89 18.5444 11.6762 18.3719 11.4623 18.3719H8.38287ZM12.4888 18.8031C12.4888 19.0619 12.7026 19.2344 12.9165 19.2344C13.1731 19.2344 13.3442 19.0188 13.3442 18.8031C13.3442 18.5444 13.1303 18.3719 12.9165 18.3719C12.7026 18.3719 12.4888 18.5875 12.4888 18.8031ZM10.6497 16.6037H7.48471C7.22809 16.6037 7.05701 16.8193 7.05701 17.0349C7.05701 17.2937 7.27086 17.4662 7.48471 17.4662H8.89611H14.67C14.9267 17.4662 15.0977 17.2506 15.0977 17.0349C15.0977 16.7762 14.8839 16.6037 14.67 16.6037H10.6497ZM10.4358 15.7411H16.5947C16.7658 15.7843 16.8941 15.9568 16.8941 16.1724C16.8941 16.4312 16.6802 16.6037 16.4664 16.6037H16.0387C15.7821 16.6037 15.611 16.8193 15.611 17.0349C15.611 17.2937 15.8248 17.4662 16.0387 17.4662H19.1181C19.3747 17.4662 19.5458 17.6818 19.5458 17.8975C19.5458 18.1131 19.332 18.3288 19.1181 18.3288H14.2851C14.0285 18.3288 13.8574 18.5444 13.8574 18.76C13.8574 19.0188 14.0713 19.1913 14.2851 19.1913H17.6212C17.8778 19.1913 18.0489 19.4069 18.0489 19.6226C18.0489 19.8813 17.835 20.0538 17.6212 20.0538H12.1894C11.9328 20.0538 11.7617 20.2695 11.7617 20.4851C11.7617 20.7438 11.9755 20.9164 12.1894 20.9164H21C22.9246 20.9164 24.4643 19.3638 24.4643 17.4231C24.4643 16.7762 24.2933 16.1724 23.9939 15.6118H24.0366C23.4379 14.5767 22.2831 13.8867 21 13.8867C20.7434 13.8867 20.444 13.9298 20.1874 13.973C19.888 13.2829 19.4603 12.6792 18.947 12.2048C18.9043 12.1616 18.8615 12.1185 18.8187 12.1185C18.7759 12.0754 18.7332 12.0323 18.6904 11.9891C17.835 11.256 16.723 10.8247 15.4827 10.8247C12.7882 10.9541 10.5641 13.0673 10.4358 15.7411Z" fill="#3D4DB6"/>
<path d="M0 16.0001L1.41141 15.5257V13.9731L2.30957 15.2238L3.76375 14.7494L2.86558 16.0001L3.76375 17.2076L2.30957 16.7764L1.41141 17.9839V16.4745L0 16.0001Z" fill="#3D4DB6"/>
<path d="M1.8819 23.0727L3.2933 22.6414V21.0889L4.19147 22.3395L5.60287 21.822L4.74748 23.0727L5.60287 24.3234L4.19147 23.849L3.2933 25.0565V23.5471L1.8819 23.0727Z" fill="#3D4DB6"/>
<path d="M7.01428 28.2911L8.42569 27.8167V26.2642L9.32385 27.5148L10.7353 27.0404L9.87986 28.248L10.7353 29.4987L9.32385 29.0243L8.42569 30.2749V28.7224L7.01428 28.2911Z" fill="#3D4DB6"/>
<path d="M1.8819 8.92735L3.33607 8.40982V6.90039L4.23424 8.15106L5.64564 7.67667L4.74748 8.92735L5.64564 10.1349L4.23424 9.6605L3.33607 10.9112V9.40174L1.8819 8.92735Z" fill="#3D4DB6"/>
<path d="M8.34012 1.94067L9.23828 3.19135L10.6497 2.71695L9.75152 3.9245L10.6497 5.17518L9.23828 4.70078L8.34012 5.95146V4.3989L6.92871 3.96763L8.34012 3.49323V1.94067Z" fill="#3D4DB6"/>
<path d="M15.3972 0L16.2526 1.25067L17.7067 0.77628L16.8086 1.98383L17.7067 3.2345L16.2526 2.76011L15.3544 3.96765V2.45822L13.943 1.98383L15.3544 1.50943L15.3972 0Z" fill="#3D4DB6"/>
<path d="M24.4644 2.58765L23.5662 3.83832L24.4644 5.04587L23.053 4.57147L22.1548 5.82215V4.31271L20.7434 3.83832L22.1548 3.36393V1.85449L23.053 3.06204L24.4644 2.58765Z" fill="#3D4DB6"/>
<path d="M31.5642 17.0781L30.11 16.6468L29.2118 17.8544V16.3449L27.8004 15.8705L29.2118 15.3962V13.8867L30.11 15.0943L31.5642 14.663L30.666 15.8705L31.5642 17.0781Z" fill="#3D4DB6"/>
<path d="M29.6823 24.1941L28.2281 23.7197L27.3727 24.9703V23.4178L25.9185 22.9865L27.3727 22.5121L27.3299 21.0027L28.2281 22.2102L29.6823 21.7358L28.7841 22.9865L29.6823 24.1941Z" fill="#3D4DB6"/>
<path d="M29.6395 7.7627L28.7841 9.01337L29.6395 10.2209L28.1853 9.74652L27.3299 10.9972V9.44464L25.9185 9.01337L27.3299 8.53898V7.02954L28.2281 8.23709L29.6395 7.7627Z" fill="#3D4DB6"/>
<path d="M15.4399 32V30.4906L13.9857 29.9731L15.4399 29.4987L15.3971 27.9893L16.2953 29.2399L17.7067 28.7655L16.8513 29.9731L17.7495 31.2238L16.2953 30.7494L15.4399 32Z" fill="#3D4DB6"/>
<path d="M24.4644 29.3694L23.053 28.895L22.1548 30.1456V28.6362L20.7006 28.1618L22.1548 27.6874V26.178L23.053 27.3855L24.4644 26.9111L23.5662 28.1618L24.4644 29.3694Z" fill="#3D4DB6"/>
<path d="M38.0652 13.7142H39.7332V14.7062H36.7393V9.74658H39.6904V10.6954H38.0652V11.7304H39.4338V12.6792H38.0652V13.7142Z" fill="#3D4DB6"/>
<path d="M42.2138 9.74658H43.5397V13.7574C43.5397 14.4043 43.1548 14.7062 42.4277 14.7062H41.2729C40.503 14.7062 40.1609 14.4043 40.1609 13.7574V9.74658H41.4868V13.5849C41.4868 13.7142 41.5295 13.7574 41.6578 13.7574H42C42.1283 13.7574 42.1711 13.7142 42.1711 13.5849V9.74658H42.2138Z" fill="#3D4DB6"/>
<path d="M46.0631 10.6954H45.5499V12.0323H46.0631C46.1915 12.0323 46.2342 11.9892 46.2342 11.8598V10.8679C46.2342 10.7385 46.1915 10.6954 46.0631 10.6954ZM45.5071 12.938V14.7062H44.1813V9.74658H46.4481C47.2179 9.74658 47.5601 10.0485 47.5601 10.6954V11.9892C47.5601 12.4636 47.3462 12.7654 46.9185 12.8948L47.8167 14.7062H46.3625L45.5927 12.938H45.5071Z" fill="#3D4DB6"/>
<path d="M50.169 13.5849V10.8679C50.169 10.7385 50.0835 10.6954 49.998 10.6954H49.6558C49.5275 10.6954 49.4847 10.7385 49.4847 10.8679V13.5849C49.4847 13.7142 49.5275 13.7574 49.6558 13.7574H49.998C50.0835 13.7142 50.169 13.6711 50.169 13.5849ZM49.2281 9.74658H50.3829C51.1528 9.74658 51.4949 10.0485 51.4949 10.6954V13.7574C51.4949 14.4043 51.11 14.7062 50.3829 14.7062H49.2281C48.4582 14.7062 48.1161 14.4043 48.1161 13.7574V10.6954C48.1161 10.0485 48.501 9.74658 49.2281 9.74658Z" fill="#3D4DB6"/>
<path d="M54.1466 11.946V10.8679C54.1466 10.7385 54.0611 10.6954 53.9756 10.6954H53.4623V12.1185H53.9756C54.1039 12.1185 54.1466 12.0323 54.1466 11.946ZM52.0937 9.74658H54.3605C55.1303 9.74658 55.4725 10.0485 55.4725 10.6954V12.1185C55.4725 12.7655 55.0876 13.0673 54.3605 13.0673H53.4196V14.7062H52.0937V9.74658Z" fill="#3D4DB6"/>
<path d="M57.3116 13.7142H58.9796V14.7062H55.9857V9.74658H58.9368V10.6954H57.3116V11.7304H58.6802V12.6792H57.3116V13.7142Z" fill="#3D4DB6"/>
<path d="M60.8187 12.9811H61.5886L61.2037 11.1698L60.8187 12.9811ZM61.9308 14.7062L61.7597 13.973H60.5621L60.391 14.7062H59.0652L60.3483 9.74658H61.9735L63.2566 14.7062H61.9308Z" fill="#3D4DB6"/>
<path d="M65.8228 9.74658H67.0631V14.7062H65.9083L64.7963 12.0754V14.7062H63.5988V9.74658H64.7535L65.8228 12.3773V9.74658Z" fill="#3D4DB6"/>
<path d="M71.2546 13.5849V10.8679C71.2546 10.7385 71.1691 10.6954 71.0835 10.6954H70.7414C70.6131 10.6954 70.5703 10.7385 70.5703 10.8679V13.5849C70.5703 13.7142 70.6131 13.7574 70.7414 13.7574H71.0835C71.1691 13.7142 71.2546 13.6711 71.2546 13.5849ZM70.3137 9.74658H71.4685C72.2383 9.74658 72.5805 10.0485 72.5805 10.6954V13.7574C72.5805 14.4043 72.1956 14.7062 71.4685 14.7062H70.3137C69.5438 14.7062 69.2017 14.4043 69.2017 13.7574V10.6954C69.2017 10.0485 69.5866 9.74658 70.3137 9.74658Z" fill="#3D4DB6"/>
<path d="M75.2321 11.946V10.8679C75.2321 10.7385 75.1466 10.6954 75.0611 10.6954H74.5478V12.1185H75.0611C75.1894 12.1185 75.2321 12.0323 75.2321 11.946ZM73.1792 9.74658H75.446C76.2159 9.74658 76.558 10.0485 76.558 10.6954V12.1185C76.558 12.7655 76.1731 13.0673 75.446 13.0673H74.5051V14.7062H73.1792V9.74658Z" fill="#3D4DB6"/>
<path d="M78.3972 13.7142H80.0652V14.7062H77.0713V9.74658H80.0224V10.6954H78.3972V11.7304H79.8086V12.6792H78.3972V13.7142Z" fill="#3D4DB6"/>
<path d="M82.7597 9.74658H84V14.7062H82.8452L81.7332 12.0754V14.7062H80.4929V9.74658H81.6476L82.7597 12.3773V9.74658Z" fill="#3D4DB6"/>
<path d="M38.7495 21.0458V20.2695C38.7495 20.1401 38.664 20.097 38.5357 20.097H37.7658C37.3809 20.097 37.0815 20.0107 36.9104 19.8382C36.7393 19.6657 36.6538 19.407 36.6538 19.0619V17.9838C36.6538 17.2937 37.0387 16.9487 37.8513 16.9487H38.9634C39.776 16.9487 40.1609 17.2937 40.1609 17.9838V18.6307H38.7067V18.1994C38.7067 18.07 38.6212 18.0269 38.4929 18.0269H38.2363C38.108 18.0269 38.0224 18.07 38.0224 18.1994V18.9757C38.0224 19.1051 38.108 19.1482 38.2363 19.1482H39.0061C39.3911 19.1482 39.6905 19.2344 39.8615 19.407C40.0326 19.5795 40.1182 19.8382 40.1182 20.1401V21.2183C40.1182 21.9083 39.7332 22.2533 38.9206 22.2533H37.8086C36.996 22.2533 36.611 21.9083 36.611 21.2183V20.5714H38.0652V21.0026C38.0652 21.132 38.1507 21.1751 38.279 21.1751H38.5357C38.664 21.2183 38.7495 21.1751 38.7495 21.0458Z" fill="#3D4DB6"/>
<path d="M44.2668 18.9327H42.8126V18.0702C42.8126 17.9408 42.7271 17.8977 42.5988 17.8977H42.3422C42.2139 17.8977 42.1283 17.9408 42.1283 18.0702V21.1322C42.1283 21.2616 42.2139 21.3047 42.3422 21.3047H42.6416C42.7699 21.3047 42.8554 21.2616 42.8554 21.1322V20.3128H44.3096V21.2184C44.3096 21.9085 43.9247 22.2535 43.112 22.2535H41.9145C41.1018 22.2535 40.7169 21.9085 40.7169 21.2184V17.9408C40.7169 17.2508 41.1018 16.9058 41.9145 16.9058H43.0693C43.8819 16.9058 44.2668 17.2508 44.2668 17.9408V18.9327Z" fill="#3D4DB6"/>
<path d="M46.2342 16.9487H44.78V22.2533H46.2342V16.9487Z" fill="#3D4DB6"/>
<path d="M48.3299 21.2183H50.1262V22.2533H46.8757V16.9487H50.0407V17.9838H48.3299V19.0619H49.8269V20.097H48.3299V21.2183Z" fill="#3D4DB6"/>
<path d="M52.9918 16.9487H54.2749V22.2533H53.0774L51.8798 19.4501V22.2533H50.554V16.9487H51.7943L52.9918 19.7951V16.9487Z" fill="#3D4DB6"/>
<path d="M58.4664 18.9327H57.0122V18.0702C57.0122 17.9408 56.9267 17.8977 56.7984 17.8977H56.499C56.3707 17.8977 56.2851 17.9408 56.2851 18.0702V21.1322C56.2851 21.2616 56.3707 21.3047 56.499 21.3047H56.7984C56.9267 21.3047 57.0122 21.2616 57.0122 21.1322V20.3128H58.4664V21.2184C58.4664 21.9085 58.0815 22.2535 57.2688 22.2535H56.1141C55.3014 22.2535 54.9165 21.9085 54.9165 21.2184V17.9408C54.9165 17.2508 55.3014 16.9058 56.1141 16.9058H57.2688C58.0815 16.9058 58.4664 17.2508 58.4664 17.9408V18.9327Z" fill="#3D4DB6"/>
<path d="M60.4338 21.2183H62.2301V22.2533H58.9796V16.9487H62.1446V17.9838H60.4338V19.0619H61.9307V20.097H60.4338V21.2183Z" fill="#3D4DB6"/>
<path d="M67.833 18.9327H66.3788V18.0702C66.3788 17.9408 66.2933 17.8977 66.165 17.8977H65.8656C65.7373 17.8977 65.6517 17.9408 65.6517 18.0702V21.1322C65.6517 21.2616 65.7373 21.3047 65.8656 21.3047H66.165C66.2933 21.3047 66.3788 21.2616 66.3788 21.1322V20.3128H67.833V21.2184C67.833 21.9085 67.4481 22.2535 66.6354 22.2535H65.4806C64.668 22.2535 64.2831 21.9085 64.2831 21.2184V17.9408C64.2831 17.2508 64.668 16.9058 65.4806 16.9058H66.6354C67.4481 16.9058 67.833 17.2508 67.833 17.9408V18.9327Z" fill="#3D4DB6"/>
<path d="M69.8004 21.2183H71.4256V22.2533H68.389V16.9487H69.8004V21.2183Z" fill="#3D4DB6"/>
<path d="M73.9491 21.0458V18.1563C73.9491 18.0269 73.8635 17.9838 73.7352 17.9838H73.3931C73.2648 17.9838 73.1792 18.0269 73.1792 18.1563V21.0458C73.1792 21.1751 73.2648 21.2183 73.3931 21.2183H73.7352C73.8635 21.2183 73.9491 21.1751 73.9491 21.0458ZM72.9654 16.9487H74.1629C74.9756 16.9487 75.3605 17.2937 75.3605 17.9838V21.2614C75.3605 21.9514 74.9756 22.2964 74.1629 22.2964H72.9654C72.1528 22.2964 71.7678 21.9514 71.7678 21.2614V17.9838C71.7678 17.2937 72.1528 16.9487 72.9654 16.9487Z" fill="#3D4DB6"/>
<path d="M78.1833 16.9487H79.6375V21.2183C79.6375 21.9083 79.2525 22.2533 78.4399 22.2533H77.2424C76.4297 22.2533 76.0448 21.9083 76.0448 21.2183V16.9487H77.499V21.0458C77.499 21.1751 77.5845 21.2183 77.7128 21.2183H78.055C78.1833 21.2183 78.2688 21.1751 78.2688 21.0458V16.9487H78.1833Z" fill="#3D4DB6"/>
<path d="M82.5458 21.132V18.07C82.5458 17.9406 82.4603 17.8975 82.332 17.8975H81.776V21.3045H82.332C82.5031 21.3045 82.5458 21.2614 82.5458 21.132ZM80.3646 16.9487H82.8025C83.6151 16.9487 84 17.2937 84 17.9838V21.2614C84 21.9514 83.6151 22.2964 82.8025 22.2964H80.3646V16.9487Z" fill="#3D4DB6"/>
</svg>
