<svg width="16" height="16" viewBox="0 0 16 16" fill="none" xmlns="http://www.w3.org/2000/svg">
<path d="M13.1021 7.08871C13.1021 3.76595 10.4106 1.07527 7.08871 1.07527C3.766 1.07527 1.07527 3.766 1.07527 7.08871C1.07527 10.4105 3.76574 13.1019 7.08831 13.1021C8.65246 13.1045 10.1556 12.4955 11.277 11.405L11.277 11.4051L11.282 11.4001L11.4001 11.282L11.4002 11.282L11.405 11.277C12.4954 10.1557 13.1044 8.65272 13.1021 7.08871ZM13.1021 7.08871H12.6021L13.1021 7.08792C13.1021 7.08818 13.1021 7.08845 13.1021 7.08871ZM12.2364 11.2001L11.9562 11.5497L12.2731 11.8664L15.2929 14.8855L14.8855 15.2929L11.8664 12.2731L11.5497 11.9562L11.2001 12.2364C10.0341 13.1712 8.58382 13.6795 7.08942 13.6774H7.08871C3.45188 13.6774 0.5 10.7255 0.5 7.08871C0.5 3.45188 3.45188 0.5 7.08871 0.5C10.7255 0.5 13.6774 3.45188 13.6774 7.08871L13.6774 7.08942C13.6795 8.58382 13.1712 10.0341 12.2364 11.2001Z" fill="white" stroke="#3D4DB6"/>
</svg>
