<svg width="16" height="12" viewBox="0 0 16 12" fill="none" xmlns="http://www.w3.org/2000/svg">
    <path fill-rule="evenodd" clip-rule="evenodd" d="M15.1485 0.859104C15.3967 1.10895 15.575 1.41961 15.6655 1.76C16 3.01636 16 5.63636 16 5.63636C16 5.63636 16 8.25636 15.6655 9.51273C15.575 9.85312 15.3967 10.1638 15.1485 10.4136C14.9002 10.6635 14.5907 10.8437 14.2509 10.9364C13 11.2727 8 11.2727 8 11.2727C8 11.2727 3 11.2727 1.74909 10.9364C1.40929 10.8437 1.09977 10.6635 0.851525 10.4136C0.603277 10.1638 0.425004 9.85312 0.334545 9.51273C0 8.25636 0 5.63636 0 5.63636C0 5.63636 0 3.01636 0.334545 1.76C0.425004 1.41961 0.603277 1.10895 0.851525 0.859104C1.09977 0.609261 1.40929 0.429001 1.74909 0.336364C3 0 8 0 8 0C8 0 13 0 14.2509 0.336364C14.5907 0.429001 14.9002 0.609261 15.1485 0.859104ZM10.5454 5.63642L6.36361 3.25732V8.01551L10.5454 5.63642Z" fill="#F2F2F2"/>
</svg>
